<svg xmlns="http://www.w3.org/2000/svg" xmlns:xlink="http://www.w3.org/1999/xlink" version="1.1" x="0px" y="0px" viewBox="0 0 100 125" style="enable-background:new 0 0 100 100;" xml:space="preserve"><g><path d="M50,74.1c-2.1,0-7.2-0.2-10.7-2.3c-2.3-1.4-2.5-4.3-2.7-6.7c-0.1-0.9-0.1-1.8-0.3-2.4   c-0.6-2.4-1.7-4.7-4.4-8.7c-3.7-5.5-5.6-10.9-5.6-16c0-13.6,9.9-23.4,23.6-23.4c14,0,24.2,9.9,24.2,23.4c0,6.7-4,12.7-6.2,16   c-2.7,4-3.8,6.3-4.4,8.7c-0.1,0.6-0.2,1.5-0.2,2.4c-0.1,2.4-0.3,5.7-3.1,7C57.3,73.4,53.9,74.1,50,74.1z M50,18.2   c-11.8,0-20,8.1-20,19.8c0,4.3,1.7,9,4.9,14c2.9,4.4,4.2,7,4.9,9.9c0.2,0.9,0.3,2,0.4,3c0.1,1.4,0.2,3.4,0.9,3.8   c1.9,1.1,5.2,1.8,8.9,1.8c3.4,0,6.2-0.6,8.8-1.7c0.8-0.4,0.9-2.2,1-3.8c0.1-1,0.1-2.1,0.3-3c0.7-2.9,1.9-5.4,4.9-9.9   c1.9-2.9,5.6-8.4,5.6-14C70.6,26.6,61.9,18.2,50,18.2z"/></g><g><path d="M50.1,81c-3.5,0-8.5-0.7-11.6-2.2c-0.9-0.4-1.3-1.5-0.8-2.4c0.4-0.9,1.5-1.3,2.4-0.8   c2.4,1.2,6.9,1.9,10,1.9c3.7,0,7.5-0.7,9.9-1.8c0.9-0.4,2,0,2.4,0.9c0.4,0.9,0,2-0.9,2.4C58.6,80.2,54.3,81,50.1,81z"/></g><g><path d="M50.1,87.8c-3.5,0-8.5-0.7-11.6-2.2c-0.9-0.4-1.3-1.5-0.8-2.4c0.4-0.9,1.5-1.3,2.4-0.8   c2.4,1.2,6.9,1.9,10,1.9c3.7,0,7.5-0.7,9.9-1.8c0.9-0.4,2,0,2.4,0.9s0,2-0.9,2.4C58.6,87,54.3,87.8,50.1,87.8z"/></g><g><path d="M50,94.7c-1.5,0-3-0.7-4.4-2.2c-0.7-0.7-0.7-1.9,0-2.6c0.7-0.7,1.9-0.7,2.6,0c1.4,1.5,2.2,1.5,3.8,0   c0.7-0.7,1.9-0.6,2.6,0.1c0.7,0.7,0.6,1.9-0.1,2.6C52.9,94,51.4,94.7,50,94.7z"/></g><g><path d="M36.7,41.1c-1,0-1.8-0.8-1.8-1.8c0-10.2,5.5-16,15.1-16c0,0,0,0,0,0c1,0,1.8,0.8,1.8,1.8S51,26.8,50,26.8   c-7.6,0-11.5,4.2-11.5,12.4C38.5,40.3,37.7,41.1,36.7,41.1z"/></g><g><path d="M92.9,41.1H82.1c-1,0-1.8-0.8-1.8-1.8s0.8-1.8,1.8-1.8h10.8c1,0,1.8,0.8,1.8,1.8S93.9,41.1,92.9,41.1z"/></g><g><path d="M17.8,41.1H7.1c-1,0-1.8-0.8-1.8-1.8s0.8-1.8,1.8-1.8h10.7c1,0,1.8,0.8,1.8,1.8S18.8,41.1,17.8,41.1z"/></g><g><path d="M7.1,68.3c-0.6,0-1.1-0.3-1.5-0.8c-0.6-0.8-0.4-2,0.5-2.5L20.4,55c0.8-0.6,2-0.4,2.5,0.5   c0.6,0.8,0.4,2-0.5,2.5L8.2,67.9C7.8,68.2,7.5,68.3,7.1,68.3z"/></g><g><path d="M92.8,68.3c-0.4,0-0.7-0.1-1-0.3L77.3,58c-0.8-0.6-1-1.7-0.5-2.5c0.6-0.8,1.7-1,2.5-0.5L93.8,65   c0.8,0.6,1,1.7,0.5,2.5C93.9,68,93.4,68.3,92.8,68.3z"/></g><g><path d="M78.5,23.8c-0.6,0-1.2-0.3-1.5-0.8c-0.5-0.8-0.3-2,0.5-2.5l14.4-9.4c0.8-0.6,2-0.3,2.5,0.5   c0.5,0.8,0.3,2-0.5,2.5l-14.4,9.4C79.2,23.7,78.9,23.8,78.5,23.8z"/></g><g><path d="M21.4,23.8c-0.3,0-0.7-0.1-1-0.3L6.1,14.1c-0.8-0.6-1.1-1.7-0.5-2.5c0.6-0.8,1.7-1.1,2.5-0.5l14.3,9.4   c0.8,0.6,1.1,1.7,0.5,2.5C22.5,23.5,22,23.8,21.4,23.8z"/></g><g><path d="M32.9,12.5c-0.7,0-1.3-0.4-1.6-1L29.4,8c-0.5-0.9-0.1-2,0.8-2.4c0.9-0.5,2-0.1,2.4,0.8l1.8,3.5   c0.5,0.9,0.1,2-0.8,2.4C33.5,12.4,33.2,12.5,32.9,12.5z"/></g><g><path d="M67.2,12.5c-0.3,0-0.6-0.1-0.8-0.2c-0.9-0.5-1.2-1.6-0.8-2.4l1.8-3.5c0.5-0.9,1.6-1.2,2.4-0.8   C70.7,6,71.1,7.1,70.6,8l-1.8,3.5C68.5,12.1,67.8,12.5,67.2,12.5z"/></g><text x="0" y="115" fill="#000000" font-size="5px" font-weight="bold" font-family="'Helvetica Neue', Helvetica, Arial-Unicode, Arial, Sans-serif">Created by Dominik Minet</text><text x="0" y="120" fill="#000000" font-size="5px" font-weight="bold" font-family="'Helvetica Neue', Helvetica, Arial-Unicode, Arial, Sans-serif">from the Noun Project</text></svg>