<svg xmlns:dc="http://purl.org/dc/elements/1.1/" xmlns:cc="http://creativecommons.org/ns#" xmlns:rdf="http://www.w3.org/1999/02/22-rdf-syntax-ns#" xmlns:svg="http://www.w3.org/2000/svg" xmlns="http://www.w3.org/2000/svg" xmlns:sodipodi="http://sodipodi.sourceforge.net/DTD/sodipodi-0.dtd" xmlns:inkscape="http://www.inkscape.org/namespaces/inkscape" version="1.1" x="0px" y="0px" viewBox="0 0 100 125"><g transform="translate(0,-952.36218)"><path style="text-indent:0;text-transform:none;direction:ltr;block-progression:tb;baseline-shift:baseline;color:#000000;enable-background:accumulate;" d="m 49.9998,960.36216 c -13.7469,0 -27,10.69721 -27,25.84374 0,9.4306 3.7355,15.542 7.0625,20.25 3.327,4.7081 5.9375,7.8975 5.9375,12.9063 l 0,12 c 0,3.9425 3.2767,7 7,7 l 0.094,0 c 0.4928,3.3656 3.4178,6 6.9062,6 3.4884,0 6.4134,-2.6344 6.9062,-6 l 0.094,0 c 3.7233,0 7,-3.0575 7,-7 l 0,-12 c 0,-5.0088 2.6105,-8.1982 5.9375,-12.9063 3.327,-4.708 7.0625,-10.8194 7.0625,-20.25 -4e-4,-15.14653 -13.2535,-25.84374 -27.0004,-25.84374 z m 0,6 c 10.6435,0 21,8.22569 21,19.84374 0,7.9332 -2.7645,12.2911 -5.9375,16.7813 -2.7053,3.8282 -5.9202,7.8467 -6.8125,13.375 l -16.5,0 c -0.8923,-5.5283 -4.1072,-9.5468 -6.8125,-13.375 -3.173,-4.4902 -5.9375,-8.8481 -5.9375,-16.7813 0,-11.61805 10.3565,-19.84374 21,-19.84374 z m -8,56.00004 16,0 0,2 -16,0 0,-2 z m 0,8 16,0 0,1 c 0,0.6537 -0.5023,1 -1,1 l -14,0 c -0.4977,0 -1,-0.3463 -1,-1 l 0,-1 z" fill="#000000" fill-opacity="1" stroke="none" marker="none" visibility="visible" display="inline" overflow="visible"/></g><text x="0" y="115" fill="#000000" font-size="5px" font-weight="bold" font-family="'Helvetica Neue', Helvetica, Arial-Unicode, Arial, Sans-serif">Created by Numero Uno</text><text x="0" y="120" fill="#000000" font-size="5px" font-weight="bold" font-family="'Helvetica Neue', Helvetica, Arial-Unicode, Arial, Sans-serif">from the Noun Project</text></svg>