<svg xmlns:x="http://ns.adobe.com/Extensibility/1.0/" xmlns:i="http://ns.adobe.com/AdobeIllustrator/10.0/" xmlns:graph="http://ns.adobe.com/Graphs/1.0/" xmlns="http://www.w3.org/2000/svg" xmlns:xlink="http://www.w3.org/1999/xlink" version="1.1" x="0px" y="0px" viewBox="0 0 100 125" enable-background="new 0 0 100 100" xml:space="preserve"><metadata><sfw xmlns="http://ns.adobe.com/SaveForWeb/1.0/"><slices/><sliceSourceBounds width="1449.1" height="1429.6" y="-1445.1" x="0.4" bottomLeftOrigin="true"/></sfw></metadata><path d="M50,36.9c-7.2,0-13.1,5.9-13.1,13.1S42.7,63.1,50,63.1S63.1,57.2,63.1,50S57.2,36.9,50,36.9z M50,58.1  c-4.5,0-8.1-3.6-8.1-8.1c0-4.5,3.6-8.1,8.1-8.1s8.1,3.6,8.1,8.1C58.1,54.5,54.5,58.1,50,58.1z M92.7,17.7c0-1.4-1.1-2.5-2.5-2.5H75  l5.5-5.5c1-1,1-2.6,0-3.5c-1-1-2.6-1-3.5,0L67.2,16c-0.5,0.5-0.7,1.1-0.7,1.8s0.3,1.3,0.7,1.8l9.8,9.8c0.5,0.5,1.1,0.7,1.8,0.7  s1.3-0.2,1.8-0.7c1-1,1-2.6,0-3.5L75,20.2h12.7v59.1H62.9c-1.2-6-6.5-10.6-12.9-10.6c-7.2,0-13.1,5.9-13.1,13.1S42.7,95,50,95  c6.4,0,11.7-4.6,12.9-10.6h27.3c1.4,0,2.5-1.1,2.5-2.5V17.7z M50,90c-4.5,0-8.1-3.6-8.1-8.1c0-4.5,3.6-8.1,8.1-8.1s8.1,3.6,8.1,8.1  C58.1,86.4,54.5,90,50,90z M37.1,20.6c1.2,6,6.5,10.6,12.9,10.6c7.2,0,13.1-5.9,13.1-13.1S57.2,5,50,5c-6.4,0-11.7,4.6-12.9,10.6  H9.8c-1.4,0-2.5,1.1-2.5,2.5v64.1c0,1.4,1.1,2.5,2.5,2.5H25l-5.5,5.5c-1,1-1,2.6,0,3.5c0.5,0.5,1.1,0.7,1.8,0.7s1.3-0.2,1.8-0.7  l9.8-9.8c1-1,1-2.6,0-3.5L23,70.7c-1-1-2.6-1-3.5,0c-1,1-1,2.6,0,3.5l5.5,5.5H12.3V20.6H37.1z M50,10c4.5,0,8.1,3.6,8.1,8.1  s-3.6,8.1-8.1,8.1s-8.1-3.6-8.1-8.1S45.5,10,50,10z"/><text x="0" y="115" fill="#000000" font-size="5px" font-weight="bold" font-family="'Helvetica Neue', Helvetica, Arial-Unicode, Arial, Sans-serif">Created by Gregor Cresnar</text><text x="0" y="120" fill="#000000" font-size="5px" font-weight="bold" font-family="'Helvetica Neue', Helvetica, Arial-Unicode, Arial, Sans-serif">from the Noun Project</text></svg>