<svg xmlns="http://www.w3.org/2000/svg" xmlns:xlink="http://www.w3.org/1999/xlink" version="1.1" x="0px" y="0px" viewBox="0 0 512 640" enable-background="new 0 0 512 512" xml:space="preserve"><g><path d="M407.8,12.5H104.2c-22.4,0-40.6,18.2-40.6,40.6v405.8c0,22.4,18.2,40.6,40.6,40.6h303.6c22.4,0,40.6-18.2,40.6-40.6V53.1   C448.4,30.7,430.2,12.5,407.8,12.5z M421.3,458.9c0,7.5-6.1,13.5-13.5,13.5H104.2c-7.5,0-13.5-6.1-13.5-13.5V53.1   c0-7.5,6.1-13.5,13.5-13.5h303.6c7.5,0,13.5,6.1,13.5,13.5V458.9z"/><path d="M383.8,63.6H128.2c-7.5,0-13.5,6.1-13.5,13.5v76.6c0,7.5,6.1,13.5,13.5,13.5h255.5c7.5,0,13.5-6.1,13.5-13.5V77.1   C397.3,69.7,391.2,63.6,383.8,63.6z M370.2,140.3H141.8V90.7h228.4V140.3z"/><path d="M153.8,195.8c-21.5,0-39.1,17.5-39.1,39.1c0,21.6,17.5,39.1,39.1,39.1c21.6,0,39.1-17.5,39.1-39.1   C192.9,213.3,175.3,195.8,153.8,195.8z M153.8,246.9c-6.6,0-12-5.4-12-12c0-6.6,5.4-12,12-12c6.6,0,12,5.4,12,12   C165.8,241.5,160.4,246.9,153.8,246.9z"/><path d="M256,195.8c-21.6,0-39.1,17.5-39.1,39.1c0,21.6,17.5,39.1,39.1,39.1c21.5,0,39.1-17.5,39.1-39.1   C295.1,213.3,277.5,195.8,256,195.8z M256,246.9c-6.6,0-12-5.4-12-12c0-6.6,5.4-12,12-12c6.6,0,12,5.4,12,12   C268,241.5,262.6,246.9,256,246.9z"/><path d="M358.2,195.8c-21.6,0-39.1,17.5-39.1,39.1c0,21.6,17.5,39.1,39.1,39.1c21.5,0,39.1-17.5,39.1-39.1   C397.3,213.3,379.7,195.8,358.2,195.8z M358.2,246.9c-6.6,0-12-5.4-12-12c0-6.6,5.4-12,12-12c6.6,0,12,5.4,12,12   C370.2,241.5,364.8,246.9,358.2,246.9z"/><path d="M153.8,285.2c-21.5,0-39.1,17.5-39.1,39.1c0,21.5,17.5,39.1,39.1,39.1c21.6,0,39.1-17.5,39.1-39.1   C192.9,302.7,175.3,285.2,153.8,285.2z M153.8,336.3c-6.6,0-12-5.4-12-12s5.4-12,12-12c6.6,0,12,5.4,12,12S160.4,336.3,153.8,336.3   z"/><path d="M256,285.2c-21.6,0-39.1,17.5-39.1,39.1c0,21.5,17.5,39.1,39.1,39.1c21.5,0,39.1-17.5,39.1-39.1   C295.1,302.7,277.5,285.2,256,285.2z M256,336.3c-6.6,0-12-5.4-12-12s5.4-12,12-12c6.6,0,12,5.4,12,12S262.6,336.3,256,336.3z"/><path d="M358.2,285.2c-21.6,0-39.1,17.5-39.1,39.1c0,21.5,17.5,39.1,39.1,39.1c21.5,0,39.1-17.5,39.1-39.1   C397.3,302.7,379.7,285.2,358.2,285.2z M358.2,336.3c-6.6,0-12-5.4-12-12s5.4-12,12-12c6.6,0,12,5.4,12,12S364.8,336.3,358.2,336.3   z"/><path d="M153.8,374.6c-21.5,0-39.1,17.5-39.1,39.1c0,21.6,17.5,39.1,39.1,39.1c21.6,0,39.1-17.5,39.1-39.1   C192.9,392.2,175.3,374.6,153.8,374.6z M153.8,425.7c-6.6,0-12-5.4-12-12c0-6.6,5.4-12,12-12c6.6,0,12,5.4,12,12   C165.8,420.3,160.4,425.7,153.8,425.7z"/><path d="M256,374.6c-21.6,0-39.1,17.5-39.1,39.1c0,21.6,17.5,39.1,39.1,39.1c21.5,0,39.1-17.5,39.1-39.1   C295.1,392.2,277.5,374.6,256,374.6z M256,425.7c-6.6,0-12-5.4-12-12c0-6.6,5.4-12,12-12c6.6,0,12,5.4,12,12   C268,420.3,262.6,425.7,256,425.7z"/><path d="M358.2,374.6c-21.6,0-39.1,17.5-39.1,39.1c0,21.6,17.5,39.1,39.1,39.1c21.5,0,39.1-17.5,39.1-39.1   C397.3,392.2,379.7,374.6,358.2,374.6z M358.2,425.7c-6.6,0-12-5.4-12-12c0-6.6,5.4-12,12-12c6.6,0,12,5.4,12,12   C370.2,420.3,364.8,425.7,358.2,425.7z"/></g><text x="0" y="527" fill="#000000" font-size="5px" font-weight="bold" font-family="'Helvetica Neue', Helvetica, Arial-Unicode, Arial, Sans-serif">Created by Icon Fair</text><text x="0" y="532" fill="#000000" font-size="5px" font-weight="bold" font-family="'Helvetica Neue', Helvetica, Arial-Unicode, Arial, Sans-serif">from the Noun Project</text></svg>