<svg xmlns="http://www.w3.org/2000/svg" xmlns:xlink="http://www.w3.org/1999/xlink" version="1.1" x="0px" y="0px" viewBox="0 0 66 82.5" style="enable-background:new 0 0 66 66;" xml:space="preserve"><g><path d="M54,16.1H30.9L24,10.9c-0.3-0.3-0.8-0.4-1.2-0.4H12c-3.3,0-6,2.7-6,6v32.9c0,3.3,2.7,6,6,6H54c3.3,0,6-2.7,6-6V22.1   C60,18.8,57.3,16.1,54,16.1z M56,49.5c0,1.1-0.9,2-2,2H12c-1.1,0-2-0.9-2-2v-19H56V49.5z M56,26.4H10v-9.9c0-1.1,0.9-2,2-2h10.2   l6.9,5.2c0.3,0.3,0.8,0.4,1.2,0.4H54c1.1,0,2,0.9,2,2V26.4z"/></g><text x="0" y="81" fill="#000000" font-size="5px" font-weight="bold" font-family="'Helvetica Neue', Helvetica, Arial-Unicode, Arial, Sans-serif">Created by Ananth</text><text x="0" y="86" fill="#000000" font-size="5px" font-weight="bold" font-family="'Helvetica Neue', Helvetica, Arial-Unicode, Arial, Sans-serif">from the Noun Project</text></svg>